<svg width="57" height="57" viewBox="0 0 57 57" fill="none" xmlns="http://www.w3.org/2000/svg">
<path d="M14.25 4.75L7.125 14.25V47.5C7.125 48.7598 7.62544 49.968 8.51624 50.8588C9.40704 51.7496 10.6152 52.25 11.875 52.25H45.125C46.3848 52.25 47.593 51.7496 48.4838 50.8588C49.3746 49.968 49.875 48.7598 49.875 47.5V14.25L42.75 4.75H14.25Z" fill="#33b750" stroke="#33b750" stroke-width="2" stroke-linecap="round" stroke-linejoin="round"/>
<path d="M7.125 14.25H49.875" stroke="white" stroke-width="2" stroke-linecap="round" stroke-linejoin="round"/>
<path d="M38 23.75C38 26.2696 36.9991 28.6859 35.2175 30.4675C33.4359 32.2491 31.0196 33.25 28.5 33.25C25.9804 33.25 23.5641 32.2491 21.7825 30.4675C20.0009 28.6859 19 26.2696 19 23.75" stroke="white" stroke-width="2" stroke-linecap="round" stroke-linejoin="round"/>
</svg>
