<svg width="27" height="27" viewBox="0 0 27 27" fill="none" xmlns="http://www.w3.org/2000/svg">
<circle cx="13.5" cy="13.5" r="12.75" stroke="black" stroke-width="1.5"/>
<path d="M19.1673 18.875V17.4583C19.1673 16.7069 18.8688 15.9862 18.3375 15.4549C17.8061 14.9235 17.0854 14.625 16.334 14.625H10.6673C9.91587 14.625 9.1952 14.9235 8.66385 15.4549C8.1325 15.9862 7.83398 16.7069 7.83398 17.4583V18.875" stroke="black" stroke-width="2" stroke-linecap="round" stroke-linejoin="round"/>
<path d="M13.4993 11.7917C15.0642 11.7917 16.3327 10.5231 16.3327 8.95833C16.3327 7.39353 15.0642 6.125 13.4993 6.125C11.9345 6.125 10.666 7.39353 10.666 8.95833C10.666 10.5231 11.9345 11.7917 13.4993 11.7917Z" stroke="black" stroke-width="2" stroke-linecap="round" stroke-linejoin="round"/>
</svg>
